<svg xmlns="http://www.w3.org/2000/svg" viewBox="0 0 726.33 419.09"><defs><style>.cls-1{fill:#f0cd95;}.cls-2{fill:#feeccb;}.cls-3{fill:#3ac1b0;}.cls-11,.cls-4{fill:#14345a;}.cls-5{fill:#1e81ad;}.cls-6{fill:#f4424f;}.cls-7{fill:#fff;}.cls-8{fill:#f9867d;}.cls-9{fill:#f2d525;}.cls-10{fill:#d62d41;}.cls-11{font-size:14.67px;font-family:Montserrat-Bold, Montserrat Bold;font-weight:700;}</style></defs><g id="Layer_2" data-name="Layer 2"><g id="Layer_1-2" data-name="Layer 1"><path class="cls-1" d="M712.81,96.65c-10.57-15.91-28.17-27.94-47.12-27.12-16.75.72-31.34,10.86-46.41,18.19S585,99.38,571.56,89.4c-9.17-6.81-13.08-18.38-18.42-28.47-18.57-35.06-59-55.42-98.66-55.9s-78.08,16.73-109,41.57-55.17,57-77.16,90c-16.76,25.17-37.1,54-67.3,55.45-26.92,1.32-49.95-20.35-76.73-23.35C92,165.09,63.66,188.77,39.8,210.88c-3.13,40.39-1.82,83.18,3.13,124.51H712.81Z"/><polygon class="cls-2" points="592.18 221.21 603.28 221.21 546.86 154.65 518.23 188.42 518.23 176.71 505.71 176.71 505.71 203.19 490.43 221.21 501.54 221.21 501.54 257.24 495.68 257.24 495.68 264.75 501.54 264.75 501.54 336.41 592.18 336.41 592.18 264.75 599.7 264.75 599.7 257.24 592.18 257.24 592.18 221.21"/><rect class="cls-1" x="532.33" y="194.89" width="10.55" height="10.55"/><rect class="cls-1" x="544.91" y="194.89" width="10.55" height="10.55"/><rect class="cls-1" x="532.33" y="207.37" width="10.55" height="10.55"/><rect class="cls-1" x="544.91" y="207.37" width="10.55" height="10.55"/><rect class="cls-1" x="517.12" y="278.2" width="10.55" height="10.55"/><rect class="cls-1" x="529.7" y="278.2" width="10.55" height="10.55"/><rect class="cls-1" x="517.12" y="290.68" width="10.55" height="10.55"/><rect class="cls-1" x="529.7" y="290.68" width="10.55" height="10.55"/><rect class="cls-1" x="557" y="278.2" width="10.55" height="10.55"/><rect class="cls-1" x="569.58" y="278.2" width="10.55" height="10.55"/><rect class="cls-1" x="557" y="290.68" width="10.55" height="10.55"/><rect class="cls-1" x="569.58" y="290.68" width="10.55" height="10.55"/><polygon class="cls-2" points="327.57 249.5 335.94 249.5 293.38 199.28 271.78 224.76 271.78 215.93 262.33 215.93 262.33 235.9 250.81 249.5 259.18 249.5 259.18 276.68 254.77 276.68 254.77 282.35 259.18 282.35 259.18 336.41 327.57 336.41 327.57 282.35 333.25 282.35 333.25 276.68 327.57 276.68 327.57 249.5"/><rect class="cls-1" x="282.41" y="229.64" width="7.96" height="7.96"/><rect class="cls-1" x="291.9" y="229.64" width="7.96" height="7.96"/><rect class="cls-1" x="282.41" y="239.06" width="7.96" height="7.96"/><rect class="cls-1" x="291.9" y="239.06" width="7.96" height="7.96"/><rect class="cls-1" x="270.94" y="292.5" width="7.96" height="7.96"/><rect class="cls-1" x="280.43" y="292.5" width="7.96" height="7.96"/><rect class="cls-1" x="270.94" y="301.91" width="7.96" height="7.96"/><rect class="cls-1" x="280.43" y="301.91" width="7.96" height="7.96"/><rect class="cls-1" x="301.03" y="292.5" width="7.96" height="7.96"/><rect class="cls-1" x="310.52" y="292.5" width="7.96" height="7.96"/><rect class="cls-1" x="301.03" y="301.91" width="7.96" height="7.96"/><rect class="cls-1" x="310.52" y="301.91" width="7.96" height="7.96"/><polygon class="cls-2" points="465.03 239.79 475.07 239.79 424.05 179.6 398.17 210.14 398.17 199.55 386.85 199.55 386.85 223.5 373.04 239.79 383.08 239.79 383.08 280.17 378.97 280.17 378.97 285.46 383.08 285.46 383.08 342.52 465.03 342.52 465.03 285.46 468.62 285.46 468.62 280.17 465.03 280.17 465.03 239.79"/><rect class="cls-1" x="388.51" y="242.48" width="8.32" height="8.32"/><rect class="cls-1" x="398.44" y="242.48" width="8.32" height="8.32"/><rect class="cls-1" x="388.51" y="252.32" width="8.32" height="8.32"/><rect class="cls-1" x="398.44" y="252.32" width="8.32" height="8.32"/><rect class="cls-1" x="414.5" y="242.48" width="8.32" height="8.32"/><rect class="cls-1" x="424.42" y="242.48" width="8.32" height="8.32"/><rect class="cls-1" x="414.5" y="252.32" width="8.32" height="8.32"/><rect class="cls-1" x="424.42" y="252.32" width="8.32" height="8.32"/><rect class="cls-1" x="440.49" y="242.48" width="8.32" height="8.32"/><rect class="cls-1" x="450.41" y="242.48" width="8.32" height="8.32"/><rect class="cls-1" x="440.49" y="252.32" width="8.32" height="8.32"/><rect class="cls-1" x="450.41" y="252.32" width="8.32" height="8.32"/><path class="cls-1" d="M401.26,305.83h-8.12v-.09a8,8,0,0,1,8-8h.08Z"/><path class="cls-1" d="M410.94,305.83h-8.12V297.7h.08a8,8,0,0,1,8,8Z"/><rect class="cls-1" x="393.14" y="307.31" width="8.12" height="8.12"/><rect class="cls-1" x="402.82" y="307.31" width="8.12" height="8.12"/><path class="cls-1" d="M444.66,305.83h-8.12v-.09a8,8,0,0,1,8-8h.08Z"/><path class="cls-1" d="M454.35,305.83h-8.13V297.7h.08a8,8,0,0,1,8.05,8Z"/><rect class="cls-1" x="436.54" y="307.31" width="8.12" height="8.12"/><rect class="cls-1" x="446.22" y="307.31" width="8.12" height="8.12"/><rect class="cls-2" x="564.47" width="161.38" height="376.55"/><rect class="cls-3" x="588.36" y="105.28" width="137.97" height="262.55"/><rect class="cls-4" x="595.44" y="112.51" width="123.41" height="255.42"/><rect class="cls-5" x="619.89" y="114.55" width="98.95" height="253.38"/><rect class="cls-1" x="576.94" y="368.32" width="149.27" height="8.93"/><rect class="cls-1" x="565.03" y="376.88" width="149.27" height="8.93"/><path class="cls-2" d="M613.52,210.44a3.82,3.82,0,1,1-3.82-3.83A3.82,3.82,0,0,1,613.52,210.44Z"/><path class="cls-6" d="M628.06,83.56a41.43,41.43,0,1,0-72.54,27.37,275,275,0,0,1,23.33,29.74l7.77,11.71,5.54-8.35A249.82,249.82,0,0,1,617,111.76,41.24,41.24,0,0,0,628.06,83.56Z"/><circle class="cls-7" cx="586.62" cy="83.56" r="22.29"/><rect class="cls-6" x="582.3" y="257.86" width="5.09" height="3.46"/><path class="cls-6" d="M590.88,284.57h-12.1V264.38a4.94,4.94,0,0,1,4.93-4.94h2.23a4.94,4.94,0,0,1,4.94,4.94Z"/><rect class="cls-4" x="576.42" y="272.04" width="18.61" height="5.96"/><path class="cls-3" d="M580.64,253.79v1.63h-3.59a2.41,2.41,0,0,0-2,2.64h1.33s-.11-1.37.91-1.57a10.33,10.33,0,0,1,3.39.77v1.62h8.06v-5.09Z"/><rect class="cls-4" x="588.92" y="307.68" width="72.95" height="60.72"/><rect class="cls-3" x="576.69" y="307.68" width="72.95" height="60.72"/><polygon class="cls-1" points="628.97 342.37 611.23 321.54 593.5 342.37 602.67 342.37 602.67 348.74 619.79 348.74 619.79 342.37 628.97 342.37"/><path class="cls-8" d="M512.24,167.64c-6.13-2.1-7.43-3.73-11.48-8.78l-9.83,14.77A63,63,0,0,0,508.48,186C507.59,179.41,508.56,172,512.24,167.64Z"/><path class="cls-4" d="M508.5,177a18.74,18.74,0,0,1,3.74-9.4c-5.5-1.88-7.12-3.4-10.32-7.34C500.46,167.34,503.49,173,508.5,177Z"/><path class="cls-8" d="M523.48,150.41a7.48,7.48,0,0,0-3.82-5.57,17.8,17.8,0,0,0-6.68-2c-3-.45-6.29-.6-8.78,1.12a9.77,9.77,0,0,0-3.36,4.81,19.76,19.76,0,0,0,1.6,16.48c2.87,4.93,6.73,9,12.15,10,1.93-3.54,3.57-5.7,5-9.87.32-.92-.17-1.92,0-2.42s1.31-1.21,1.5-1.82c.87-2.73,1.18-4.41,1.88-7.19A10.86,10.86,0,0,0,523.48,150.41Z"/><path class="cls-4" d="M509.6,157.42a1.79,1.79,0,0,1,2-1.27,2.06,2.06,0,0,1,1.38,2.06c-.1,1.21-.22,2,.13,2.6a29.17,29.17,0,0,1,4-6.4l-13.69-6.52a2.74,2.74,0,0,0-1.11-.33,2,2,0,0,0-.95.32,5.49,5.49,0,0,0-2.33,3.89,27,27,0,0,0-.11,4.67,9,9,0,0,1-.9,4.54,15.34,15.34,0,0,0,7.9-1.35c1-.48,2.2-1.07,3.24-.72A9,9,0,0,1,509.6,157.42Z"/><path class="cls-4" d="M506.6,141.79a14.56,14.56,0,0,1,7.46.31,21.46,21.46,0,0,1,7.83,3.33,4.67,4.67,0,0,1,1.77,2.17,5.64,5.64,0,0,1,.12,2.09c-.08,1.12-.16,2.25-.23,3.38a2,2,0,0,1-2.69,2.29c-3.82-.3-7.73-.62-11.23-2.17-2.29-1-4.38-2.56-6.83-3.11a3.1,3.1,0,0,1-1.58-.62A2.37,2.37,0,0,1,501,147,8.63,8.63,0,0,1,506.6,141.79Z"/><path class="cls-6" d="M514.88,141.51a45.9,45.9,0,0,1,7.51,3.44,3.45,3.45,0,0,1,2.16,4.56,48.15,48.15,0,0,1-2.18,7.54,42.52,42.52,0,0,1-19.22-5.37c-1.39-.78-2.91-1.92-2.9-3.52A4.78,4.78,0,0,1,501,146a12.84,12.84,0,0,1,2.86-4,8.2,8.2,0,0,1,5.4-1.68A17.62,17.62,0,0,1,514.88,141.51Z"/><path class="cls-9" d="M523.6,151.46a6.86,6.86,0,0,0,.32-3.68,4.93,4.93,0,0,0-2.46-2.76,32.54,32.54,0,0,0-3.5-1.44,4.31,4.31,0,0,1,.76,2.68,10.63,10.63,0,0,1-.55,2.78,35.34,35.34,0,0,1-3.11,7.14,14.75,14.75,0,0,0,3.15.49,5,5,0,0,0,3-.84C522.61,154.84,523.15,153.09,523.6,151.46Z"/><path class="cls-6" d="M522.75,155.22c1.45.06,1.55,1,6.55,2.74-2.79,1.7-5.36,2.39-8.43,1.29a70.72,70.72,0,0,1-8.76-3.81C515.58,156.26,519.19,155.07,522.75,155.22Z"/><path class="cls-4" d="M503.37,145.65a.84.84,0,0,0-.39-.51.81.81,0,0,0-.63-.24c-.23,0-.37.26-.49.46a3.38,3.38,0,0,0-.61,1.54,1.19,1.19,0,0,0,.84,1.27l1.14-2.06A1,1,0,0,0,503.37,145.65Z"/><path class="cls-7" d="M520.43,166.43c-.15-.59-.19-1.38-.72-1.68a2.84,2.84,0,0,0-1.44-.28c-2.49,0-2.79.26-5.29.31-.89,2.31-3.23,3.72-4.5,5.85.84,1,1.07,3,2.24,3.54a27,27,0,0,0,3.64,1.15,1.8,1.8,0,0,0,1.21,0,1.9,1.9,0,0,0,.53-.45c.56-.62.87-1.13,1.43-1.75a18.36,18.36,0,0,0,2.59-3.19A4.69,4.69,0,0,0,520.43,166.43Z"/><path class="cls-7" d="M509.8,171.83l-.11,0c-.83-.22-1.39-1-1.66-2.36a21.35,21.35,0,0,1,.81-11.45.44.44,0,1,1,.83.3,20.48,20.48,0,0,0-.77,11q.3,1.48,1,1.68a.44.44,0,0,1,.31.55A.45.45,0,0,1,509.8,171.83Z"/><path class="cls-7" d="M514,166.54a.44.44,0,0,1-.38-.22,8.27,8.27,0,0,1-.61-7,.45.45,0,0,1,.58-.26.44.44,0,0,1,.26.57,7.35,7.35,0,0,0,.54,6.24.45.45,0,0,1-.16.61A.46.46,0,0,1,514,166.54Z"/><path class="cls-4" d="M562.17,242.52a25.19,25.19,0,0,1-3.74-4.69,3.82,3.82,0,0,1-.53-1.14,1.42,1.42,0,0,1,.24-1.2,2.94,2.94,0,0,1,1.56-.66,2.47,2.47,0,0,0,1.47-1,1.49,1.49,0,0,0-.07-1.71c-2.06,1-4.6.07-6.83.64a14.9,14.9,0,0,0-3,1.35,25.7,25.7,0,0,1-4.89-2.23l0,.07c-18-11.42-37.21-38.17-45.13-50.09-9.38-4.69-15.08-1.63-14.06,7.33,5.57,32.5,35,47.76,54.93,52.08-.06.15-.13.29-.2.43,1.7.42,3.36.94,5,1.51a20.3,20.3,0,0,0,5.1,3.67,3.33,3.33,0,0,0,2.3.46c.72-.21,1.26-.85,2-1,.57-.09,1.16.15,1.72,0,.92-.17,1.45-1.18,2.33-1.49a7.36,7.36,0,0,1,1.41-.19,1.25,1.25,0,0,0,1.09-.78C563,243.4,562.56,242.91,562.17,242.52Z"/><rect class="cls-6" x="545.72" y="227.81" width="50.43" height="8.35"/><rect class="cls-4" x="545.72" y="234.12" width="50.43" height="2.04"/><rect class="cls-6" x="553.16" y="219.66" width="50.43" height="8.35"/><rect class="cls-4" x="553.16" y="225.72" width="50.43" height="2.29"/><rect class="cls-6" x="548.11" y="235.55" width="50.43" height="8.35"/><path class="cls-7" d="M508.28,396.53c-.06-.59-.13-1.18-.19-1.77a212.33,212.33,0,0,1-23,.49,5.78,5.78,0,0,0-1.56.1c-.51.14-.85-.15-1.1.34s-.36,1.78,0,2.14c4.07.63,8.2.37,12.3.6a59.75,59.75,0,0,0,6.94.28A11.63,11.63,0,0,0,508.28,396.53Z"/><path class="cls-4" d="M496.14,397.43c4.16.17,8.55.25,12.21-1.72a4.64,4.64,0,0,0-2.63-3.83,15.39,15.39,0,0,0-4.66-1.31,11,11,0,0,1-4.55-1.61,4.13,4.13,0,0,1-1.82-4.2,70,70,0,0,1-11.12.32,37.75,37.75,0,0,0-1.33,11.58Q489.19,397.14,496.14,397.43Z"/><path class="cls-10" d="M494,388.64a.69.69,0,0,1,.56.14,20.85,20.85,0,0,0,9.19,2.74,3,3,0,0,1-2.25,1,8.92,8.92,0,0,1-2.5-.38c-1.83-.47-3.78-1-5-2.46a1.09,1.09,0,0,1-.29-.55A.46.46,0,0,1,494,388.64Z"/><path class="cls-7" d="M495.24,391.76a.5.5,0,0,1-.33-.09.48.48,0,0,1-.1-.67,15.11,15.11,0,0,1,1.8-2,.48.48,0,0,1,.68,0,.49.49,0,0,1,0,.68,13.13,13.13,0,0,0-1.68,1.89A.48.48,0,0,1,495.24,391.76Z"/><path class="cls-7" d="M497.28,392.56a.63.63,0,0,1-.3-.07.49.49,0,0,1-.15-.67,9.59,9.59,0,0,1,1.54-1.88.48.48,0,0,1,.68,0,.47.47,0,0,1,0,.68,8.3,8.3,0,0,0-1.38,1.69A.52.52,0,0,1,497.28,392.56Z"/><path class="cls-7" d="M499.74,392.84a.4.4,0,0,1-.26,0,.48.48,0,0,1-.21-.65,7.13,7.13,0,0,1,1.14-1.63.49.49,0,0,1,.68,0,.48.48,0,0,1,0,.68,5.78,5.78,0,0,0-1,1.41A.46.46,0,0,1,499.74,392.84Z"/><path class="cls-4" d="M483.17,389.66h16c-1.1-45.65.41-91.37,3.83-136.88a54.35,54.35,0,0,1-26.74-5.32l-7.19-.42c-6.72,25.71-3.12,53.33,2.25,79.44C475.65,347.45,481.08,368.36,483.17,389.66Z"/><path class="cls-7" d="M499.19,398.34l-.21-1.77c-8.23.57-16.5.75-24.75.5a6.3,6.3,0,0,0-1.68.09c-.54.14-.91-.15-1.18.35s-.38,1.77.05,2.13c4.37.63,8.83.37,13.24.6a69.09,69.09,0,0,0,7.47.28A13.2,13.2,0,0,0,499.19,398.34Z"/><path class="cls-4" d="M486.13,399c4.44.19,9.12.26,13-1.84a5,5,0,0,0-2.81-4.08,16.55,16.55,0,0,0-5-1.4,11.9,11.9,0,0,1-4.85-1.72,4.43,4.43,0,0,1-1.95-4.48,75.89,75.89,0,0,1-11.87.34,40.31,40.31,0,0,0-1.42,12.36Q478.72,398.67,486.13,399Z"/><path class="cls-10" d="M484.34,388.53a.69.69,0,0,1,.55.19,21,21,0,0,0,8.93,3.5,3,3,0,0,1-2.33.82,8.56,8.56,0,0,1-2.47-.59c-1.78-.61-3.68-1.32-4.75-2.86A1.19,1.19,0,0,1,484,389,.48.48,0,0,1,484.34,388.53Z"/><path class="cls-7" d="M485.33,391.75a.51.51,0,0,1-.32-.12.48.48,0,0,1,0-.68,14.45,14.45,0,0,1,2-1.87.49.49,0,0,1,.68.08.48.48,0,0,1-.08.68,13.7,13.7,0,0,0-1.83,1.74A.5.5,0,0,1,485.33,391.75Z"/><path class="cls-7" d="M487.3,392.71a.46.46,0,0,1-.29-.1.48.48,0,0,1-.1-.67,9.71,9.71,0,0,1,1.7-1.75.48.48,0,0,1,.6.76,8,8,0,0,0-1.52,1.56A.49.49,0,0,1,487.3,392.71Z"/><path class="cls-7" d="M489.73,393.2a.48.48,0,0,1-.42-.74,7.54,7.54,0,0,1,1.28-1.53.49.49,0,0,1,.65.72,5.81,5.81,0,0,0-1.1,1.32A.49.49,0,0,1,489.73,393.2Z"/><path class="cls-6" d="M470.86,389.66h18.89c-.86-46.15,6.3-91.37,9.73-136.88a54.35,54.35,0,0,1-26.74-5.32l-7.19-.42c-6.72,25.71-3.12,53.33,2.25,79.44C472.11,347.45,470.43,367.55,470.86,389.66Z"/><path class="cls-10" d="M499.48,252.78a52.85,52.85,0,0,1-12.24-.71c-3.58,45.4-7.6,92.05-2.21,137.59h4.72C488.89,343.51,496.05,298.29,499.48,252.78Z"/><rect class="cls-4" x="464.53" y="256.59" width="37.13" height="4.29"/><rect class="cls-6" x="474.62" y="255.84" width="1.82" height="5.79"/><rect class="cls-6" x="493.24" y="255.84" width="1.82" height="5.79"/><path class="cls-6" d="M490.29,172.37c-12.58,12-18.35,22.62-23.16,39.34-4.23,14.67-6,27-7.57,41.52a4.94,4.94,0,0,0,5.5,5.44c12.28-1.44,22.32-2,34.47.4a4,4,0,0,0,4.77-4c0-17.39,9.62-36.59,9.29-44.92-.29-7.52-1.69-10.78-3-18.19-.32-1.76-.66-3.73-.94-5.8-7.06-3.44-13.57-8.88-19-14.22Z"/><path class="cls-10" d="M510.57,192c-.32-1.76-.66-3.73-.94-5.8a70.36,70.36,0,0,1-16.05-11.41c-11.4,12.13,1.08,28.63-2.47,42.83-2.44,11-9.78,19.56-7.33,30.56,0,1.22,1.22,4.89,1.22,6.12a28.71,28.71,0,0,1-3.76,3.14,84.85,84.85,0,0,1,18.29,1.63,4,4,0,0,0,4.77-4c0-17.39,9.62-36.59,9.29-44.92C513.3,202.67,511.9,199.41,510.57,192Z"/><path class="cls-4" d="M484.41,196.34a52,52,0,0,0,21.88,35.36l3.27-10.45a53.93,53.93,0,0,1-21.18-37.47,8.52,8.52,0,0,0-3.9,5.58A19.26,19.26,0,0,0,484.41,196.34Z"/><path class="cls-7" d="M492.37,170.2l-3.83,3.37a202.34,202.34,0,0,1,18.51,16.73c.3-1.85.59-3.44,2.11-4.51.4.69.47,3,.87,3.72.93-1.73,1.52-5.7.35-7.28a15.52,15.52,0,0,0-4.55-3.68Q499.1,174.38,492.37,170.2Z"/><path class="cls-9" d="M480.51,187.37a.73.73,0,0,0-1.08-.52,4,4,0,0,0-1.21,1.19,53.66,53.66,0,0,0-8.9,19.6,7.15,7.15,0,0,0-.27,1.81c0,.59.24,1.12.59,1.13s.68-.45,1-.88a81.27,81.27,0,0,0,9.56-19.88A4.62,4.62,0,0,0,480.51,187.37Z"/><path class="cls-6" d="M499.47,183.18c-9.38-4.68-15.08-1.63-14.06,7.34,6.11,35.66,40.93,50.57,60.48,53,3.46-.17,4.79-4.68,5.46-6.73C531.64,228.87,508.4,196.61,499.47,183.18Z"/><path class="cls-7" d="M560.39,243.85a24.55,24.55,0,0,1-3.74-4.69,3.82,3.82,0,0,1-.53-1.14,1.42,1.42,0,0,1,.24-1.2,2.89,2.89,0,0,1,1.56-.65,2.53,2.53,0,0,0,1.47-1,1.49,1.49,0,0,0-.07-1.71c-2.06,1-4.59.08-6.83.65a14.56,14.56,0,0,0-3,1.34,25.09,25.09,0,0,1-4.89-2.23q-2.25,4.92-4.49,9.83c1.69.41,3.35.94,5,1.5a19.93,19.93,0,0,0,5.11,3.67,3.27,3.27,0,0,0,2.3.46c.71-.21,1.25-.84,2-1,.57-.1,1.16.15,1.72,0,.92-.18,1.45-1.19,2.33-1.5a8.25,8.25,0,0,1,1.41-.19,1.23,1.23,0,0,0,1.09-.78C561.23,244.73,560.79,244.24,560.39,243.85Z"/><path class="cls-9" d="M489.78,193.9A5.68,5.68,0,0,0,490,197a5.83,5.83,0,0,0,6,3.87,6.21,6.21,0,0,0,5.12-4.3,6.46,6.46,0,0,0-1.8-6.47,5.11,5.11,0,0,0-4.47-1.36A6.87,6.87,0,0,0,489.78,193.9Z"/><path class="cls-4" d="M101.82,380.75,15.26,417.92c-9.2,3.67-16.62-1.71-15-9.92V73.64a10.79,10.79,0,0,1,15.05-9.91l86.56,37.16a8.14,8.14,0,0,1,4.93,7.48v264.9A8.13,8.13,0,0,1,101.82,380.75Z"/><path class="cls-5" d="M101,377.22,16,414.14A4.51,4.51,0,0,1,9.73,410V72.56c0-3.27,6.75-5.13,9.72-3.84L101,105.3a2.22,2.22,0,0,1,1.34,2V375.18A2.22,2.22,0,0,1,101,377.22Z"/><path class="cls-7" d="M102.47,375.19l-85,36.51a4.5,4.5,0,0,1-6.28-4.14V73.94c0-3.23,6.75-5.07,9.72-3.79l81.59,36.16a2.2,2.2,0,0,1,1.33,2V373.17A2.19,2.19,0,0,1,102.47,375.19Z"/><path class="cls-3" d="M103.14,371.25,22,407.19a4.31,4.31,0,0,1-6-4.08V74.72a4.31,4.31,0,0,1,6-4.07l81.1,35.94a2.16,2.16,0,0,1,1.28,2V369.26A2.16,2.16,0,0,1,103.14,371.25Z"/><polygon class="cls-2" points="96.71 359.44 31.31 379.29 31.31 199.98 96.71 212.12 96.71 359.44"/><polygon class="cls-4" points="71.47 212.56 71.47 362.21 94.71 355.15 94.71 216.87 71.47 212.56"/><polygon class="cls-4" points="69.33 212.16 33.31 205.48 33.31 373.79 69.33 362.86 69.33 212.16"/><polygon class="cls-2" points="32.24 254.89 32.04 254.89 31.81 253.75 60.95 241.73 61.4 242.82 32.26 254.84 32.24 254.79 32.24 254.89"/><polygon class="cls-9" points="76.61 249.15 62.15 250.13 30.54 198.87 45.66 200.87 76.61 249.15"/><polygon class="cls-6" points="88.41 248.34 75.5 249.22 44.49 200.72 58.11 202.52 88.41 248.34"/><polygon class="cls-9" points="99.01 247.62 87.42 248.41 57.05 202.38 69.38 204.01 99.01 247.62"/><polygon class="cls-6" points="108.59 246.97 98.12 247.68 68.42 203.88 79.64 205.37 108.59 246.97"/><polygon class="cls-9" points="117.28 246.37 107.78 247.02 78.77 205.25 89.01 206.6 117.28 246.37"/><polygon class="cls-6" points="125.2 245.83 116.54 246.42 88.21 206.5 97.61 207.74 125.2 245.83"/><path class="cls-2" d="M89.21,185.2l-57.14-9.71a4.67,4.67,0,0,1-3.9-4.62V143.61A4.69,4.69,0,0,1,33.89,139L91,152a4.67,4.67,0,0,1,3.65,4.55l.08,24A4.68,4.68,0,0,1,89.21,185.2Z"/><text class="cls-11" transform="matrix(1, 0.17, 0, 1, 33.85, 162.75)">ORDER</text><polygon class="cls-4" points="90.06 106.42 90.06 107.77 88.96 107.36 88.97 110.92 90.07 111.33 90.07 112.67 100.71 116.59 100.7 110.33 90.06 106.42"/><polygon class="cls-4" points="23.9 87.54 21.86 86.89 21.86 84.09 23.89 84.74 23.9 87.54"/><polygon class="cls-4" points="27.26 88.6 25.22 87.95 25.21 83.59 27.25 84.23 27.26 88.6"/><polygon class="cls-4" points="30.62 89.66 28.58 89.02 28.57 82.56 30.61 83.21 30.62 89.66"/><polygon class="cls-4" points="33.98 90.72 31.94 90.08 31.92 82 33.96 82.64 33.98 90.72"/><path class="cls-4" d="M80.87,95.71c-8.29-3.32-16.42-7.3-24.72-10.62q2.85,4.81,5.68,9.63l14.92,5A25.62,25.62,0,0,0,80.87,95.71Z"/><path class="cls-5" d="M7.72,158.89v-34a1.82,1.82,0,1,0-3.63,0v34Z"/><path class="cls-5" d="M4.09,163.92V199.6a1.82,1.82,0,1,0,3.63,0V163.92Z"/><circle class="cls-5" cx="5.45" cy="108.35" r="3.06"/><path class="cls-6" d="M221.54,351.92H210.66c-75.8,0-137.26.77-137.26,1.72s61.46,1.72,137.26,1.72h10.88Z"/><path class="cls-6" d="M227.65,341.31h-4c-27.64,0-50,.59-50,1.33s22.4,1.32,50,1.32h4Z"/><path class="cls-6" d="M222.76,311.19H217c-40.15,0-72.69.48-72.69,1.08s32.54,1.07,72.69,1.07h5.76Z"/><circle class="cls-4" cx="244.25" cy="353.97" r="29.63"/><circle class="cls-3" cx="244.25" cy="353.97" r="19.22"/><path class="cls-4" d="M348.75,352.94c3.36-3.64,4.49-9,6.26-13.8a44.51,44.51,0,0,1,18-22.45,51,51,0,0,0,6.39-4.1,10.55,10.55,0,0,0,3.91-6.66,16,16,0,0,0-1-6.21c-3.94-13.14-7.88-26.3-12.6-39.13-1.22-3.32-2.91-7-6.08-7.87-2.11-.56-4.3.35-6.31,1.25-6.21,2.8-12.76,6.13-16.15,12.47-2.42,4.52-2.86,10-2.71,15.22.34,11.45,3.27,22.6,4.57,34s.73,23.66-5.16,33.12c-1.3,2.09-2.83,4-4.25,6A11.75,11.75,0,0,0,348.75,352.94Z"/><path class="cls-6" d="M290,293.69c5,.58,10.64,2.15,12.43,5.87,1.49,3.09-.23,6.48-1.45,9.65a31.92,31.92,0,0,0-1.06,19.85c1.26,4.7,3.93,9.51,9.16,12,4.63,2.23,10.4,2.27,15.84,2.24,7.81,0,16.32-.26,22.33-4.16,2.59,6-2.34,12.71-9.27,16s-15.32,3.94-23.4,4.4c-29.51,1.68-59.14,1.78-88.69.77-4.84-.17-10.11-.5-13.67-3.06-4.37-3.13-4.56-8.37-4.43-13,.3-10.63.82-21.88,8.24-30.8,4.58-5.5,11.49-9.66,19-12.53s15.77-4.55,24-5.84C269.23,293.52,279.71,292.5,290,293.69Z"/><path class="cls-4" d="M316.2,356.42c6-.34,12.15-.7,17.73-3s10.59-6.83,11.76-12.73c.22-1.11.09-2.59-1-2.93-2,5-7.25,7.95-12.49,9s-10.66.63-16,.77-10.95,1-15.2,4.23a5.43,5.43,0,0,0-1.83,2.1,2.42,2.42,0,0,0,.37,2.63,3.78,3.78,0,0,0,2.87.64Z"/><path class="cls-10" d="M242.24,304.45c13.93-5.08,29-6.58,43.81-5.39,3.21.25,7,1,8.29,3.94.89,2,.35,4.24-.08,6.35a52.62,52.62,0,0,0,3,30.52,32.49,32.49,0,0,1,2.59,7.33c.4,2.56-.13,5.46-2.1,7.16s-5,1.82-7.62,1.8c-16.94-.11-34-.23-50.67-3.14-5.06-.88-10.52-2.29-13.62-6.39s-3-9.5-2.61-14.52c.5-6.94,1.51-14.31,6-19.63C232.53,308.53,237.39,306.22,242.24,304.45Z"/><path class="cls-7" d="M373.1,231.24c1.75,4,1.75,8.57,1.67,13l-2.48.23a90.14,90.14,0,0,0-5-16.61,3.45,3.45,0,0,1,3.62.35A7.17,7.17,0,0,1,373.1,231.24Z"/><path class="cls-6" d="M374.1,247.05a37.82,37.82,0,0,0-3.39-16c-1.18-2.59-3.11-5.35-5.95-5.53a8.46,8.46,0,0,0-4.28,1.24,25.5,25.5,0,0,0-7.28,5c-3.39,3.66-4.71,8.72-5.92,13.56a4.09,4.09,0,0,0,0,2.8c.55,1.11,1.85,1.4,3.16,1.4.51,1.64,1,3.29,1.52,4.93a1.14,1.14,0,0,0,.41.67,1.13,1.13,0,0,0,.81,0l6-1.54a5.59,5.59,0,0,0,2.63-1.21,6.53,6.53,0,0,0,1.2-2.14,14.94,14.94,0,0,1,1.17-2.16Z"/><path class="cls-4" d="M358,236.1a7.24,7.24,0,0,0-5.91,1.46,4.32,4.32,0,0,0,4.27,7.44,7.41,7.41,0,0,0,4.25-4.13A3,3,0,0,0,358,236.1Z"/><circle class="cls-4" cx="389.73" cy="353.97" r="29.63"/><circle class="cls-3" cx="389.73" cy="353.97" r="19.22"/><path class="cls-4" d="M378.55,362.73c3.54,3.14,9.1,2.29,13.43.35,2.56-1.14,5.16-2.8,6.09-5.45.82-2.34.15-4.92-.56-7.3a236.84,236.84,0,0,0-11.36-30.25c-.94-2.06-2.17-4.34-4.37-4.91a14.68,14.68,0,0,1-2.21-.46c-.69-.29-1.27-1.1-.95-1.78a44.2,44.2,0,0,0-10.89,4.94,6.41,6.41,0,0,0-2.92,3,6.86,6.86,0,0,0,.4,4.22q4.82,15.27,9.62,30.52C375.64,358.23,376.54,360.93,378.55,362.73Z"/><path class="cls-7" d="M386.79,361.31a5.95,5.95,0,1,1,5.94-5.95A6,6,0,0,1,386.79,361.31Zm0-11a5.06,5.06,0,1,0,5,5.06A5.07,5.07,0,0,0,386.79,350.3Z"/><path class="cls-4" d="M253.88,304.76c-8.07-1.57-16.62.79-23.41,5.42s-12,11.38-15.7,18.7-6.17,15.24-8.31,23.18c-.36,1.33-.7,2.82-.08,4.05a5.45,5.45,0,0,0,2.63,2.13c7.3,3.51,15.48,4.68,23.56,5.27a184.42,184.42,0,0,0,50.06-3.2,14.52,14.52,0,0,0,5.17-1.79,11,11,0,0,0,3-3.24c3.64-5.56,4.41-12.7,2.94-19.19s-5-12.35-9.39-17.36a44.06,44.06,0,0,0-15.63-11.86,29.21,29.21,0,0,0-19.35-1.59"/><path class="cls-4" d="M256.58,303.61a1.22,1.22,0,0,1-1.22,1.22H195.25a1.22,1.22,0,0,1-1.22-1.22h0a1.23,1.23,0,0,1,1.22-1.23h60.11a1.22,1.22,0,0,1,1.22,1.23Z"/><path class="cls-6" d="M426.78,353.87c-1.08-9-3.71-15.73-9.43-22.55a36.81,36.81,0,0,0-8.53-7.91c-10.77-7.13-25-8.43-36-1.82-10.85,6.51-17.75,19.25-18.37,32.28Z"/><path class="cls-10" d="M358.13,352.11a26.35,26.35,0,0,1,52.52.46Z"/><path class="cls-7" d="M414.5,342.43a.47.47,0,0,1-.39-.23c-5.28-9.68-14.44-16.47-24.49-18.16-10.72-1.8-21.86,2.63-27.71,11a.44.44,0,1,1-.72-.51c6-8.66,17.52-13.24,28.58-11.38,10.32,1.73,19.71,8.68,25.12,18.6a.44.44,0,0,1-.17.6A.43.43,0,0,1,414.5,342.43Z"/><path class="cls-4" d="M303.21,298.5c1.08-1.11.38-3-.51-4.23-3.28-4.65-8.38-7.77-13.77-9.58s-11.1-2.42-16.77-2.88c-2.67-.22-5.55-.37-7.84,1-3.25,2-4.12,6.23-4.68,10-.39,2.64-.44,6,1.92,7.22a6.57,6.57,0,0,0,3.24.44l35.81-1.23A3.71,3.71,0,0,0,303.21,298.5Z"/><path class="cls-7" d="M292.08,296.75a.42.42,0,0,1-.36-.2A26.29,26.29,0,0,0,264.24,286a.44.44,0,1,1-.22-.86,27.2,27.2,0,0,1,28.43,10.88.43.43,0,0,1-.12.61A.38.38,0,0,1,292.08,296.75Z"/><path class="cls-7" d="M346.39,288c-.88-1-2.5-.77-3.81-.43-2,.53-4.38,1.32-5.06,3.31a6.31,6.31,0,0,0-.11,2.74L339,309.35a3.23,3.23,0,0,0,3.67,2.88l3.85-.52a4,4,0,0,0,2.37-.89c.82-.84.72-2.19.55-3.36l-2.4-17.53A3.71,3.71,0,0,0,346.39,288Z"/><polygon class="cls-7" points="339.46 285.47 339.97 289.24 343.74 288.38 342.52 284.76 339.46 285.47"/><path class="cls-6" d="M337.42,286.54a38.23,38.23,0,0,1,6.39-.88l-.36-4-6.67.87A17.4,17.4,0,0,0,337.42,286.54Z"/><path class="cls-6" d="M334.09,285.94a1.23,1.23,0,0,0,.18,1.13.72.72,0,0,0,1.05,0,1.57,1.57,0,0,1,.71-1.52,3.49,3.49,0,0,1,1.68-.49,14.9,14.9,0,0,0,1.77-.14,2.34,2.34,0,0,1-.41-1.5c-.92.34-1.91.39-2.84.67A3,3,0,0,0,334.09,285.94Z"/><path class="cls-4" d="M350.94,301a70.44,70.44,0,0,0-1.33-10.55,15.22,15.22,0,0,1-12.5,9.24c.1,1.08.21,2.15.31,3.23A111.94,111.94,0,0,1,350.94,301Z"/><path class="cls-6" d="M196.55,244.5c-3,2-5.94,4.2-7.52,7.38-1.79,3.63-1.49,7.91-1.07,11.94q1.41,13.76,3.77,27.39c.64,3.67,1.55,7.68,4.54,9.9,2.56,1.89,6,2,9.16,1.95l44.3-.07c2.6,0,5.55-.16,7.2-2.17,1.26-1.52,1.35-3.66,1.39-5.63l1.11-57.43c.05-2.3.05-4.75-1.17-6.7a9.53,9.53,0,0,0-5.14-3.56c-7.37-2.53-15.49-1-23,1.2A125.33,125.33,0,0,0,196.55,244.5Z"/><path class="cls-9" d="M253.77,265.33a280.22,280.22,0,0,0-60.2,6.52q-.19-8.73-.41-17.44A158.36,158.36,0,0,1,254,236.47Z"/><circle class="cls-9" cx="225.05" cy="282.87" r="11.16"/><path class="cls-7" d="M237.91,230.27c-10.86,1.94-21.25,5.91-31.4,10.26-5.61,2.4-11.5,5.2-14.7,10.39,3.27-3.49,8.38-6.25,12.81-8,7.76-3.12,13.86-5.54,21.81-8.15s17.42-4.58,25.51-2.83C248,229.09,242.68,229.42,237.91,230.27Z"/><path class="cls-6" d="M249.91,309.65c-8.08-1.57-16.62.79-23.42,5.42s-12,11.38-15.7,18.7S204.63,349,202.48,357c-.36,1.33-.7,2.82-.07,4.05a5.4,5.4,0,0,0,2.63,2.13c7.29,3.51,15.48,4.68,23.55,5.27a184.49,184.49,0,0,0,50.07-3.2,14.47,14.47,0,0,0,5.16-1.79,10.78,10.78,0,0,0,3-3.24c3.65-5.56,4.42-12.7,2.95-19.19s-5-12.35-9.39-17.36a44,44,0,0,0-15.64-11.86,29.18,29.18,0,0,0-19.34-1.59"/><path class="cls-9" d="M275.79,321h-1.37c.17,2-2.16,3.21-4.09,3.82-20.27,6.47-40.82,12-61.37,17.49q-2.28,8.22-4.57,16.46c25.86-.92,51.05-8,76-15,2.24-.63,4.82-1.59,5.45-3.82.53-1.83-.52-3.71-1.53-5.33Z"/><path class="cls-7" d="M211.79,335.77a.51.51,0,0,1-.17,0,.46.46,0,0,1-.24-.58,38.69,38.69,0,0,1,53.46-20,.45.45,0,0,1-.4.8,37.81,37.81,0,0,0-52.24,19.48A.45.45,0,0,1,211.79,335.77Z"/><path class="cls-4" d="M277.49,361.09a1.23,1.23,0,0,1-.9,1,48.72,48.72,0,0,1-12.83,1.33c-.42,0-.62-.37-.46-.81h0a1.19,1.19,0,0,1,1-.77,46.89,46.89,0,0,0,12.48-1.3.52.52,0,0,1,.68.6Z"/><path class="cls-4" d="M278.07,357.62a1.23,1.23,0,0,1-.91.95,47.82,47.82,0,0,1-12.82,1.33c-.42,0-.62-.37-.46-.8h0a1.18,1.18,0,0,1,1-.78,47,47,0,0,0,12.49-1.3.52.52,0,0,1,.68.6Z"/><path class="cls-4" d="M278.65,354.15a1.23,1.23,0,0,1-.91,1,47.82,47.82,0,0,1-12.82,1.33c-.42,0-.63-.37-.47-.8h0a1.2,1.2,0,0,1,1-.78,46.89,46.89,0,0,0,12.48-1.3.53.53,0,0,1,.69.6Z"/><path class="cls-6" d="M356.13,337.6a56.86,56.86,0,0,1,16.07-18.79c4.65-3.53,10.05-6.69,12.46-12,2.9-6.43.51-13.89-1.89-20.52q-3.9-10.72-7.78-21.46a37,37,0,0,0-4.17-8.17c-1.45-2.14-4.4-4.68-7.36-3.87,0,4.52-5.09,8.51-7.62,12.26-4.24,6.32-3.67,14.57-3.17,22.17.7,10.46,1,21-.81,31.36s-5.68,20.49-12.53,28.41c-1.27,1.46-2.72,3.25-2.14,5.09.66,2.05,3.42,2.52,5.5,2,3.54-.93,6.36-3.65,8.37-6.7S354.43,340.85,356.13,337.6Z"/><path class="cls-7" d="M359.54,283.67c1.58.21,2.78-1.42,3.32-2.92,1.15-3.2,1.09-6.78,2.57-9.84a21.35,21.35,0,0,0,1.47-3,3.13,3.13,0,0,0-.53-3.14,2.83,2.83,0,0,0-3-.43,6.6,6.6,0,0,0-2.47,2c-3.31,3.9-5.11,9.29-3.9,14.26C357.33,282,358.13,283.5,359.54,283.67Z"/><path class="cls-7" d="M340.74,348a.44.44,0,0,1-.34-.73C352.81,332.52,354.5,314,353.74,301c-.19-3.19-.19-6.46-.19-9.61,0-2.6,0-5.29-.11-7.92l-.06-1.19c-.23-5.44-.48-11.06,2.64-15.68a44.26,44.26,0,0,1,3-3.83c2.19-2.64,4.26-5.13,5.37-9.46a.45.45,0,0,1,.87.22c-1.17,4.53-3.3,7.09-5.56,9.81a47.36,47.36,0,0,0-2.91,3.75c-3,4.39-2.72,9.86-2.49,15.15l.05,1.2c.11,2.64.11,5.34.12,7.95,0,3.14,0,6.39.19,9.56.77,13.14-1,31.94-13.55,46.87A.44.44,0,0,1,340.74,348Z"/></g></g></svg>