<?xml version="1.0" encoding="utf-8"?>
<!-- Generator: Adobe Illustrator 25.0.0, SVG Export Plug-In . SVG Version: 6.00 Build 0)  -->
<svg version="1.1" id="Layer_1" xmlns="http://www.w3.org/2000/svg" xmlns:xlink="http://www.w3.org/1999/xlink" x="0px" y="0px"
	 viewBox="0 0 1000 1000" style="enable-background:new 0 0 1000 1000;" xml:space="preserve">
<style type="text/css">
	.st0{display:none;fill:#363333;}
	.st1{fill:#E16428;}
	.st2{fill:#FFFFFF;}
	.st3{font-family:'Dubai-Regular';}
	.st4{font-size:50px;}
	.st5{letter-spacing:11;}
	.st6{font-family:'Dubai-Bold';}
	.st7{letter-spacing:36;}
</style>
<rect class="st0" width="1000" height="1000"/>
<rect class="st0" width="1000" height="1000"/>
<g>
	<g>
		<g>
			<path class="st1" d="M351.33,513.04l121.26,22.84c2.51-11.56,3.84-23.57,3.84-35.88c0-93.14-75.5-168.64-168.64-168.64
				S139.14,406.86,139.14,500s75.5,168.64,168.64,168.64c47.91,0,91.15-19.98,121.85-52.06L351.33,513.04z M168.41,500
				c0-11.02,8.94-19.96,19.96-19.96c11.02,0,19.96,8.94,19.96,19.96s-8.94,19.96-19.96,19.96
				C177.35,519.96,168.41,511.02,168.41,500z M214.35,576.99c-9.55,5.51-21.75,2.24-27.27-7.31c-5.51-9.55-2.24-21.75,7.31-27.27
				c9.55-5.51,21.75-2.24,27.27,7.31S223.9,571.48,214.35,576.99z M221.65,450.27c-5.51,9.55-17.72,12.82-27.27,7.31
				c-9.55-5.51-12.82-17.72-7.31-27.27c5.51-9.55,17.72-12.82,27.27-7.31C223.9,428.52,227.17,440.73,221.65,450.27z M258.06,413.87
				c-9.55,5.51-21.75,2.24-27.27-7.31c-5.51-9.55-2.24-21.75,7.31-27.27c9.55-5.51,21.75-2.24,27.27,7.31
				C270.87,396.15,267.6,408.36,258.06,413.87z M307.78,400.55c-11.02,0-19.96-8.94-19.96-19.96c0-11.02,8.94-19.96,19.96-19.96
				c11.02,0,19.96,8.94,19.96,19.96C327.74,391.61,318.81,400.55,307.78,400.55z"/>
		</g>
		<polygon class="st1" points="377.29,530.99 474.91,660.1 535.61,560.82 		"/>
	</g>
	<g>
		<text transform="matrix(1 0 0 1 512.9142 473.2501)" class="st2 st3 st4 st5">THE PIZZA</text>
		<text transform="matrix(1 0 0 1 518.2637 530.994)" class="st2 st6 st4 st7">HOUSE</text>
	</g>
</g>
</svg>
